{"asset":{"version":"2.0","generator":"THREE.GLTFExporter"},"scenes":[{"name":"default","nodes":[0]}],"scene":0,"nodes":[{"name":"IronIngot","extras":{"data":{"name":"IronIngot","points":[{"name":"Origin","pos":{"x":0,"y":0,"z":0}}],"billboard":{"enabled":false,"y":false},"directional":{"enabled":false,"mode":"cameraAngle","angles":[]},"custom":[],"instances":[{"name":"IronIngot","uuid":"74408519-C3DD-4A24-B5C5-6DE576A436C8","parent":null,"pos":{"x":1,"y":2,"z":-7},"rot":{"x":4.078893220340672e-32,"y":-1.3585443504628992e-47,"z":-6.661338147750937e-16,"order":"XYZ"},"sca":{"x":1,"y":1,"z":1},"custom":[]}]}},"mesh":0}],"bufferViews":[{"buffer":0,"byteOffset":0,"byteLength":288,"target":34962,"byteStride":12},{"buffer":0,"byteOffset":288,"byteLength":288,"target":34962,"byteStride":12},{"buffer":0,"byteOffset":576,"byteLength":192,"target":34962,"byteStride":8},{"buffer":0,"byteOffset":768,"byteLength":384,"target":34962,"byteStride":16},{"buffer":0,"byteOffset":1152,"byteLength":84,"target":34963}],"buffers":[{"byteLength":1236,"uri":"data:application/octet-stream;base64,"}],"accessors":[{"bufferView":0,"componentType":5126,"count":24,"max":[1,-5.10702591327572e-15,1],"min":[-1,-0.5,-1],"type":"VEC3"},{"bufferView":1,"componentType":5126,"count":24,"max":[0.7071067690849304,1,1],"min":[-0.7071067690849304,0,-1],"type":"VEC3"},{"bufferView":2,"componentType":5126,"count":24,"max":[0.125,0.25],"min":[0,0.125],"type":"VEC2"},{"bufferView":3,"componentType":5126,"count":24,"max":[1,1,1,1],"min":[1,1,1,1],"type":"VEC4"},{"bufferView":4,"componentType":5123,"count":42,"max":[23],"min":[0],"type":"SCALAR"}],"materials":[{"pbrMetallicRoughness":{"metallicFactor":0,"roughnessFactor":1,"baseColorTexture":{"index":0}},"alphaMode":"MASK","alphaCutoff":0.01,"doubleSided":true,"name":"1"}],"textures":[{"sampler":0,"source":0,"name":"1"}],"samplers":[{"magFilter":9728,"minFilter":9728,"wrapS":33071,"wrapT":33071}],"images":[{"mimeType":"image/png","uri":"data:image/png;base64,"}],"meshes":[{"primitives":[{"mode":4,"attributes":{"POSITION":0,"NORMAL":1,"TEXCOORD_0":2,"COLOR_0":3},"indices":4,"material":0}]}]}