{
	"asset":{
		"generator":"Khronos glTF Blender I/O v3.5.30",
		"version":"2.0"
	},
	"scene":0,
	"scenes":[
		{
			"name":"Scene",
			"nodes":[
				0,
				1
			]
		}
	],
	"nodes":[
		{
			"mesh":0,
			"name":"Cube.002",
			"scale":[
				0.04455818980932236,
				0.04455818980932236,
				0.04455818980932236
			]
		},
		{
			"name":"Cube.001",
			"scale":[
				0.06103688105940819,
				0.06103688105940819,
				0.036429278552532196
			]
		}
	],
	"materials":[
		{
			"doubleSided":true,
			"name":"Pixkaxe",
			"pbrMetallicRoughness":{
				"baseColorFactor":[
					0.800000011920929,
					0.800000011920929,
					0.800000011920929,
					1
				],
				"metallicFactor":0,
				"roughnessFactor":0.5
			}
		}
	],
	"meshes":[
		{
			"name":"Cube.003",
			"primitives":[
				{
					"attributes":{
						"POSITION":0,
						"TEXCOORD_0":1,
						"NORMAL":2
					},
					"indices":3,
					"material":0
				}
			]
		}
	],
	"accessors":[
		{
			"bufferView":0,
			"componentType":5126,
			"count":637,
			"max":[
				1,
				16.75091552734375,
				7.667182922363281
			],
			"min":[
				-1,
				-0.14044833183288574,
				-6.752902507781982
			],
			"type":"VEC3"
		},
		{
			"bufferView":1,
			"componentType":5126,
			"count":637,
			"type":"VEC2"
		},
		{
			"bufferView":2,
			"componentType":5126,
			"count":637,
			"type":"VEC3"
		},
		{
			"bufferView":3,
			"componentType":5123,
			"count":996,
			"type":"SCALAR"
		}
	],
	"bufferViews":[
		{
			"buffer":0,
			"byteLength":7644,
			"byteOffset":0,
			"target":34962
		},
		{
			"buffer":0,
			"byteLength":5096,
			"byteOffset":7644,
			"target":34962
		},
		{
			"buffer":0,
			"byteLength":7644,
			"byteOffset":12740,
			"target":34962
		},
		{
			"buffer":0,
			"byteLength":1992,
			"byteOffset":20384,
			"target":34963
		}
	],
	"buffers":[
		{
			"byteLength":22376,
			"uri":"data:application/octet-stream;base64,"
		}
	]
}
