{"asset":{"version":"2.0","generator":"THREE.GLTFExporter"},"scenes":[{"name":"default","nodes":[0]}],"scene":0,"nodes":[{"name":"Stone","extras":{"data":{"name":"Stone","points":[{"name":"Origin","pos":{"x":0,"y":0,"z":0}}],"billboard":{"enabled":false,"y":false},"directional":{"enabled":false,"mode":"cameraAngle","angles":[]},"custom":[],"instances":[{"name":"Stone","uuid":"7B9E795F-D000-4594-9A8B-D24531934422","parent":null,"pos":{"x":-0.5,"y":-2,"z":1},"rot":{"x":0,"y":0,"z":0,"order":"XYZ"},"sca":{"x":1,"y":1,"z":1},"custom":[]}]}},"mesh":0}],"bufferViews":[{"buffer":0,"byteOffset":0,"byteLength":336,"target":34962,"byteStride":12},{"buffer":0,"byteOffset":336,"byteLength":336,"target":34962,"byteStride":12},{"buffer":0,"byteOffset":672,"byteLength":224,"target":34962,"byteStride":8},{"buffer":0,"byteOffset":896,"byteLength":448,"target":34962,"byteStride":16},{"buffer":0,"byteOffset":1344,"byteLength":108,"target":34963}],"buffers":[{"byteLength":1452,"uri":"data:application/octet-stream;base64,"}],"accessors":[{"bufferView":0,"componentType":5126,"count":28,"max":[1,2,1],"min":[-1,-2,-1],"type":"VEC3"},{"bufferView":1,"componentType":5126,"count":28,"max":[1,1,1],"min":[-1,0,-1],"type":"VEC3"},{"bufferView":2,"componentType":5126,"count":28,"max":[0.375,0.125],"min":[0.25,0],"type":"VEC2"},{"bufferView":3,"componentType":5126,"count":28,"max":[1,1,1,1],"min":[1,1,1,1],"type":"VEC4"},{"bufferView":4,"componentType":5123,"count":54,"max":[27],"min":[0],"type":"SCALAR"}],"materials":[{"pbrMetallicRoughness":{"metallicFactor":0,"roughnessFactor":1,"baseColorTexture":{"index":0}},"alphaMode":"MASK","alphaCutoff":0.01,"doubleSided":true,"name":"ORES_1"}],"textures":[{"sampler":0,"source":0,"name":"ORES_1"}],"samplers":[{"magFilter":9728,"minFilter":9728,"wrapS":33648,"wrapT":33648}],"images":[{"mimeType":"image/png","uri":"ORES_1.png"}],"meshes":[{"primitives":[{"mode":4,"attributes":{"POSITION":0,"NORMAL":1,"TEXCOORD_0":2,"COLOR_0":3},"extras":{"indexNormals":[{"x":-1,"y":0,"z":0},{"x":-1,"y":0,"z":0},{"x":-1,"y":0,"z":0},{"x":-1,"y":0,"z":0},{"x":-1,"y":0,"z":0},{"x":-1,"y":0,"z":0},{"x":0,"y":0,"z":1},{"x":0,"y":0,"z":1},{"x":0,"y":0,"z":1},{"x":0,"y":0,"z":1},{"x":0,"y":0,"z":1},{"x":0,"y":0,"z":1},{"x":-1,"y":0,"z":0},{"x":-1,"y":0,"z":0},{"x":-1,"y":0,"z":0},{"x":-1,"y":0,"z":0},{"x":-1,"y":0,"z":0},{"x":-1,"y":0,"z":0},{"x":0,"y":0,"z":1},{"x":0,"y":0,"z":1},{"x":0,"y":0,"z":1},{"x":0,"y":0,"z":1},{"x":0,"y":0,"z":1},{"x":0,"y":0,"z":1},{"x":0,"y":1,"z":0},{"x":0,"y":1,"z":0},{"x":0,"y":1,"z":0},{"x":0,"y":1,"z":0},{"x":0,"y":1,"z":0},{"x":0,"y":1,"z":0},{"x":1,"y":0,"z":0},{"x":1,"y":0,"z":0},{"x":1,"y":0,"z":0},{"x":1,"y":0,"z":0},{"x":1,"y":0,"z":0},{"x":1,"y":0,"z":0},{"x":1,"y":0,"z":0},{"x":1,"y":0,"z":0},{"x":1,"y":0,"z":0},{"x":1,"y":0,"z":0},{"x":1,"y":0,"z":0},{"x":1,"y":0,"z":0},{"x":0,"y":0,"z":-1},{"x":0,"y":0,"z":-1},{"x":0,"y":0,"z":-1},{"x":0,"y":0,"z":-1},{"x":0,"y":0,"z":-1},{"x":0,"y":0,"z":-1},{"x":0,"y":0,"z":-1},{"x":0,"y":0,"z":-1},{"x":0,"y":0,"z":-1},{"x":0,"y":0,"z":-1},{"x":0,"y":0,"z":-1},{"x":0,"y":0,"z":-1}]},"indices":4,"material":0}]}]}